<svg width="500" viewBox="0 0 500 200" xmlns="http://www.w3.org/2000/svg">
  <polygon points="100,28 154,59 154,121 100,152 46,121 46,59" fill="none" stroke="#1371cf" stroke-width="2.5"/>
  <polygon points="100,46 138,68 138,112 100,134 62,112 62,68" fill="none" stroke="#378ADD" stroke-width="1.4" opacity="0.9"/>
  <circle cx="100" cy="46"  r="4.5" fill="#1371cf"/>
  <circle cx="138" cy="68"  r="4.5" fill="#1371cf"/>
  <circle cx="138" cy="112" r="4.5" fill="#1371cf"/>
  <circle cx="100" cy="134" r="4.5" fill="#1371cf"/>
  <circle cx="62"  cy="112" r="4.5" fill="#1371cf"/>
  <circle cx="62"  cy="68"  r="4.5" fill="#1371cf"/>
  <circle cx="100" cy="90"  r="9"   fill="#0d5faf"/>
  <line x1="100" y1="81"  x2="100" y2="46"  stroke="#1371cf" stroke-width="1.8" stroke-linecap="round"/>
  <line x1="107" y1="85"  x2="138" y2="68"  stroke="#1371cf" stroke-width="1.8" stroke-linecap="round"/>
  <line x1="107" y1="95"  x2="138" y2="112" stroke="#1371cf" stroke-width="1.8" stroke-linecap="round"/>
  <line x1="100" y1="99"  x2="100" y2="134" stroke="#1371cf" stroke-width="1.8" stroke-linecap="round"/>
  <line x1="93"  y1="95"  x2="62"  y2="112" stroke="#1371cf" stroke-width="1.8" stroke-linecap="round"/>
  <line x1="93"  y1="85"  x2="62"  y2="68"  stroke="#1371cf" stroke-width="1.8" stroke-linecap="round"/>
  <line x1="178" y1="38" x2="178" y2="143" stroke="#CBD5E0" stroke-width="1"/>
  <text x="196" y="98"  font-family="Arial, Helvetica, sans-serif" font-size="70" font-weight="bold" fill="#1371cf" letter-spacing="1">JVR</text>
  <text x="196" y="118" font-family="Arial, Helvetica, sans-serif" font-size="13" font-weight="normal" fill="#c0bfbe" letter-spacing="3">TECHSOLUTIONS</text>
  <text x="196" y="134" font-family="Arial, Helvetica, sans-serif" font-size="10" font-weight="normal" fill="#7c7b7b" letter-spacing="1.5">SOFTWARE · CLOUD · IT</text>
</svg>
